<svg id="Layer_5" enable-background="new 0 0 64 64" height="512" viewBox="0 0 64 64" width="512" xmlns="http://www.w3.org/2000/svg"><g><path d="m20 24.474c.613-.651 1.302-1.228 2.056-1.715-.827-1.761-2.147-3.211-3.751-4.218-.651 3.141-1.911 6.171-3.688 8.836l-1.617 2.426-1.579-2.368c-1.791-2.687-3.057-5.742-3.703-8.911-2.827 1.769-4.718 4.902-4.718 8.476v10c0 1.103.897 2 2 2h1v-17h2v37c0 1.103.897 2 2 2s2-.897 2-2v-18-.757c0-1.068.416-2.073 1.172-2.829l1.121-1.121 1.414 1.414-1.121 1.121c-.378.378-.586.88-.586 1.415v.757 18c0 1.103.897 2 2 2s2-.897 2-2v-22.444c-.636-1.39-1-2.93-1-4.556s.364-3.166 1-4.556v-5.444h2z"/><path d="m12.788 17.011-.565 7.903c.247.436.503.866.777 1.283.274-.415.531-.842.778-1.275l-.565-7.914c-.072-.001-.142-.008-.213-.008-.072 0-.141.009-.212.011z"/><path d="m28 23c-4.962 0-9 4.038-9 9s4.038 9 9 9 9-4.038 9-9-4.038-9-9-9zm-1 8h2c1.654 0 3 1.346 3 3v3h-3v2h-2v-2c-1.654 0-3-1.346-3-3h2c0 .551.449 1 1 1h3v-1c0-.551-.449-1-1-1h-2c-1.654 0-3-1.346-3-3v-3h3v-2h2v2c1.654 0 3 1.346 3 3h-2c0-.551-.449-1-1-1h-3v1c0 .551.449 1 1 1z"/><path d="m10.764 17.261c-.403.093-.795.212-1.178.352.211 1.173.515 2.329.906 3.458z"/><path d="m16.44 17.623c-.393-.145-.794-.27-1.205-.366l.276 3.857c.4-1.138.712-2.306.929-3.491z"/><circle cx="13" cy="9" r="6"/><path d="m54 35c-1.808 0-3.436.962-4.321 2.496 1.191.939 2.69 1.504 4.321 1.504s3.13-.565 4.321-1.504c-.885-1.534-2.513-2.496-4.321-2.496z"/><path d="m54 25c-3.86 0-7 3.14-7 7 0 1.492.473 2.873 1.271 4.01.708-1.021 1.655-1.834 2.763-2.351-.635-.708-1.034-1.634-1.034-2.659 0-2.206 1.794-4 4-4s4 1.794 4 4c0 1.025-.399 1.951-1.034 2.659 1.108.517 2.055 1.33 2.763 2.351.798-1.137 1.271-2.518 1.271-4.01 0-3.86-3.14-7-7-7z"/><circle cx="54" cy="31" r="2"/><path d="m46 47c-3.86 0-7 3.14-7 7 0 1.492.473 2.873 1.271 4.01.708-1.021 1.655-1.834 2.763-2.351-.635-.708-1.034-1.634-1.034-2.659 0-2.206 1.794-4 4-4s4 1.794 4 4c0 1.025-.399 1.951-1.034 2.659 1.108.517 2.055 1.33 2.763 2.351.798-1.137 1.271-2.518 1.271-4.01 0-3.86-3.14-7-7-7z"/><circle cx="46" cy="53" r="2"/><path d="m46 57c-1.808 0-3.436.962-4.321 2.496 1.191.939 2.69 1.504 4.321 1.504s3.13-.565 4.321-1.504c-.885-1.534-2.513-2.496-4.321-2.496z"/><path d="m43.034 11.659c-.635-.708-1.034-1.634-1.034-2.659 0-2.206 1.794-4 4-4s4 1.794 4 4c0 1.025-.399 1.951-1.034 2.659 1.108.517 2.055 1.33 2.763 2.351.798-1.137 1.271-2.518 1.271-4.01 0-3.86-3.14-7-7-7s-7 3.14-7 7c0 1.492.473 2.873 1.271 4.01.709-1.021 1.656-1.833 2.763-2.351z"/><circle cx="46" cy="9" r="2"/><path d="m41.679 15.496c1.191.939 2.69 1.504 4.321 1.504s3.13-.565 4.321-1.504c-.885-1.534-2.513-2.496-4.321-2.496s-3.436.962-4.321 2.496z"/><path d="m36.451 24.963 6.503-6.503c-.67-.241-1.304-.554-1.89-.939l-6.027 6.027c.513.428.987.902 1.414 1.415z"/><path d="m38.95 31c.03.33.05.662.05 1s-.021.67-.05 1h6.109c-.037-.329-.059-.662-.059-1s.022-.671.059-1z"/><path d="m42.954 45.54-6.503-6.503c-.428.513-.901.986-1.414 1.414l6.027 6.027c.586-.384 1.22-.697 1.89-.938z"/></g></svg>