<svg height="511pt" viewBox="0 -12 511.96007 511" width="511pt" xmlns="http://www.w3.org/2000/svg"><path d="m195.867188 214.578125 27.90625 54.488281c21.054687 41.105469 101.496093 41.96875 179.675781 1.929688 78.175781-40.039063 124.484375-105.820313 103.429687-146.925782l-27.90625-54.488281zm0 0" fill="#ffb600"/><path d="m195.867188 214.582031 27.90625 54.488281c20.234374 39.503907 95.320312 41.835938 170.53125 6.417969-8.25-40.144531-24.753907-72.585937-37.894532-96.324219-6.464844-11.679687-8.796875-28.574218-6.503906-43.476562zm0 0" fill="#ff9d00"/><path d="m479.003906 69.566406c-21.054687-41.109375-101.5-41.96875-179.683594-1.925781-78.179687 40.042969-124.492187 105.828125-103.4375 146.9375 21.054688 41.109375 101.503907 41.96875 179.683594 1.925781 78.183594-40.042968 124.492188-105.828125 103.4375-146.9375zm0 0" fill="#ffcd00"/><path d="m356.410156 179.160156c-9.394531-16.972656-10.0625-44.964844-.484375-61.835937 14.972657-26.375 19.515625-55.679688 20.636719-76.210938-24.449219 4.242188-50.980469 13.078125-77.261719 26.539063-78.175781 40.039062-124.484375 105.820312-103.429687 146.929687 21.023437 41.050781 101.292968 41.964844 179.375 2.078125-6.25-14.21875-12.886719-26.753906-18.835938-37.5zm0 0" fill="#ffb600"/><path d="m318.429688 105c-33.039063 16.925781-98.421876 64.652344-85.210938 90.449219 13.210938 25.792969 85.339844 3.097656 123.191406-16.289063 37.855469-19.390625 98.425782-64.652344 85.214844-90.449218-13.214844-25.796876-90.152344-.632813-123.195312 16.289062zm0 0" fill="#ffde55"/><path d="m355.925781 117.320312c5.917969-10.425781 10.210938-21.316406 13.304688-31.9375-19.335938 5.5625-38.238281 13.1875-50.800781 19.617188-33.039063 16.925781-98.421876 64.652344-85.210938 90.449219 13.210938 25.792969 85.339844 3.097656 123.191406-16.289063-9.394531-16.976562-10.0625-44.96875-.484375-61.839844zm0 0" fill="#ffcd00"/><path d="m6.910156 401.914062 27.90625 54.488282c21.050782 41.105468 101.496094 41.96875 179.671875 1.929687 78.179688-40.039062 124.488281-105.820312 103.433594-146.925781l-27.90625-54.488281zm0 0" fill="#ffcd00"/><path d="m322.878906 329.667969c-.4375-6.46875-2.050781-12.601563-4.953125-18.261719l-27.90625-54.488281-174.546875 89.398437c50.359375 9.644532 119.417969 10.277344 207.40625-16.648437zm0 0" fill="#ffb600"/><path d="m290.042969 256.917969c-21.054688-41.105469-101.5-41.96875-179.683594-1.925781-78.179687 40.042968-124.488281 105.832031-103.433594 146.9375 21.054688 41.109374 101.5 41.972656 179.683594 1.929687 78.179687-40.046875 124.488281-105.832031 103.433594-146.941406zm0 0" fill="#ffde55"/><path d="m110.34375 254.988281c-33.019531 16.910157-60.355469 38.414063-79.332031 60.714844 32.605469 19.203125 110.351562 52.148437 234.054687 28.414063 26.5625-30.785157 37.238282-63.203126 24.949219-87.199219-21.050781-41.105469-101.496094-41.972657-179.671875-1.929688zm0 0" fill="#ffcd00"/><path d="m129.472656 292.339844c-33.042968 16.921875-98.421875 64.652344-85.210937 90.445312 13.210937 25.792969 85.335937 3.097656 123.191406-16.289062 37.855469-19.386719 98.421875-64.652344 85.210937-90.449219-13.210937-25.792969-90.148437-.632813-123.191406 16.292969zm0 0" fill="#ffeb99"/><path d="m5.039062 176.890625 27.90625 54.488281c21.054688 41.105469 101.496094 41.96875 179.675782 1.929688 78.175781-40.039063 124.484375-105.820313 103.429687-146.929688l-27.90625-54.484375zm0 0" fill="#ffde55"/><path d="m288.164062 31.882812c-21.054687-41.105468-101.503906-41.96875-179.683593-1.925781-78.183594 40.042969-124.492188 105.832031-103.4375 146.9375 21.054687 41.109375 101.503906 41.972657 179.683593 1.929688 78.183594-40.046875 124.492188-105.832031 103.4375-146.941407zm0 0" fill="#ffeb99"/><path d="m127.601562 67.3125c-33.042968 16.921875-98.421874 64.652344-85.210937 90.445312 13.210937 25.796876 85.335937 3.097657 123.191406-16.289062s98.421875-64.652344 85.210938-90.445312c-13.210938-25.796876-90.148438-.632813-123.191407 16.289062zm0 0" fill="#fff5ca"/><path d="m129.472656 292.339844c-16.398437 8.394531-40.765625 24.386718-59.53125 41.511718 29.25 10.671876 69.863282 19.75 121.964844 18.40625 34.519531-22.339843 71.347656-55.535156 60.757812-76.210937-13.210937-25.792969-90.148437-.632813-123.191406 16.292969zm0 0" fill="#ffde55"/><g fill="#57565c"><path d="m205.394531 84.4375c-3.742187 2.050781-8.4375.679688-10.488281-3.0625l-6.164062-11.246094c-2.050782-3.742187-.679688-8.441406 3.0625-10.492187 3.742187-2.050781 8.4375-.679688 10.488281 3.0625l6.164062 11.246093c2.050781 3.746094.679688 8.441407-3.0625 10.492188zm0 0"/><path d="m93.726562 145.640625c-3.742187 2.054687-8.4375.683594-10.488281-3.058594l-6.167969-11.25c-2.050781-3.742187-.679687-8.4375 3.0625-10.488281 3.742188-2.050781 8.4375-.679688 10.492188 3.0625l6.164062 11.246094c2.050782 3.742187.679688 8.4375-3.0625 10.488281zm0 0"/><path d="m146.765625 98.957031c-.296875 3.0625-2.363281 4.542969-3.257813 5.035157-.898437.492187-3.28125 1.480468-5.996093.039062-3.769531-2-8.449219-.570312-10.449219 3.199219-2.003906 3.769531-.570312 8.445312 3.199219 10.449219 6.496093 3.449218 14.222656 3.398437 20.671875-.136719 6.449218-3.535157 10.648437-10.019531 11.234375-17.351563.339843-4.253906-2.832031-7.976562-7.085938-8.316406-1.558593-.125-7.699219.703125-8.316406 7.082031zm0 0"/></g></svg>