<svg id="Capa_1" enable-background="new 0 0 512 512" height="512" viewBox="0 0 512 512" width="512" xmlns="http://www.w3.org/2000/svg" xmlns:xlink="http://www.w3.org/1999/xlink"><linearGradient id="SVGID_1_" gradientUnits="userSpaceOnUse" x1="256" x2="256" y1="451" y2="61"><stop offset="0" stop-color="#00b59c"/><stop offset="1" stop-color="#9cffac"/></linearGradient><linearGradient id="SVGID_2_" gradientUnits="userSpaceOnUse" x1="256" x2="256" y1="331" y2="121"><stop offset="0" stop-color="#c3ffe8"/><stop offset=".9973" stop-color="#f0fff4"/></linearGradient><g><g><g><path d="m497 61h-482c-8.291 0-15 6.709-15 15v300c0 8.291 6.709 15 15 15h188.5l40.503 53.994c2.827 3.779 7.28 6.006 11.997 6.006s9.17-2.227 11.997-6.006l40.503-53.994h188.5c8.291 0 15-6.709 15-15v-300c0-8.291-6.709-15-15-15z" fill="url(#SVGID_1_)"/></g></g><g><g><path d="m166 241c-8.291 0-15 6.709-15 15s6.709 15 15 15c34.6 0 75-27.495 75-105 0-24.814-20.186-45-45-45s-45 20.186-45 45 20.186 45 45 45c2.745 0 5.407-.339 8.018-.811-7.5 19.625-20.711 30.811-38.018 30.811zm120 0c-8.291 0-15 6.709-15 15s6.709 15 15 15c34.6 0 75-27.495 75-105 0-24.814-20.186-45-45-45s-45 20.186-45 45 20.186 45 45 45c2.745 0 5.407-.339 8.018-.811-7.5 19.625-20.711 30.811-38.018 30.811zm120 60h-300c-8.291 0-15 6.709-15 15s6.709 15 15 15h300c8.291 0 15-6.709 15-15s-6.709-15-15-15z" fill="url(#SVGID_2_)"/></g></g></g></svg>